# MagicaVoxel @ Ephtracy

# group
o 

# material
mtllib bench.mtl
usemtl palette

# normals
vn -1 0 0
vn 1 0 0
vn 0 0 1
vn 0 0 -1
vn 0 -1 0
vn 0 1 0

# texcoords
vt 0.0371094 0.5
vt 0.0449219 0.5
vt 0.0683594 0.5
vt 0.986328 0.5

# verts
v -4 0 3.7
v -4 0 -4.3
v -4 0.2 3.5
v -4 0.2 1.8
v -4 0.2 1.6
v -4 0.2 -1
v -4 0.2 -1.2
v -4 0.2 -4.1
v -4 2.8 3.5
v -4 2.8 1.8
v -4 2.8 1.6
v -4 3.2 3.5
v -4 3.2 1.6
v -4 4.7 3.7
v -4 4.7 3.5
v -4 4.7 -1
v -4 4.7 -1.2
v -4 4.7 -4.1
v -4 4.7 -4.3
v -4 6 3.7
v -4 6 3.5
v -4 6 -1
v -4 6 -4.3
v 3.7 0 3.5
v 3.7 0 -4.1
v 3.7 0.2 3.7
v 3.7 0.2 3.5
v 3.7 0.2 1.8
v 3.7 0.2 1.6
v 3.7 0.2 -1
v 3.7 0.2 -1.2
v 3.7 0.2 -4.1
v 3.7 0.2 -4.3
v 3.7 2.7 1.8
v 3.7 2.7 1.6
v 3.7 2.8 3.7
v 3.7 2.8 3.5
v 3.7 4.7 -1
v 3.7 4.7 -1.2
v 3.7 4.7 -4.1
v 3.7 4.7 -4.3
v 3.7 4.8 -1
v 3.7 4.8 -1.2
v 3.7 4.8 -4.1
v 3.7 4.8 -4.2
v 3.7 5.8 -1
v 3.7 5.8 -1.2
v 3.7 5.8 -4.1
v 3.7 5.8 -4.2
v 3.8 3.2 3.7
v 3.8 3.2 3.5
v 3.8 4.7 3.7
v 3.8 4.7 3.5
v 3.9 4.8 -1.2
v 3.9 4.8 -4.1
v 3.9 5.8 -1.2
v 3.9 5.8 -4.1
v -3.9 4.8 -1.2
v -3.9 4.8 -4.1
v -3.9 5.8 -1.2
v -3.9 5.8 -4.1
v -3.8 3.2 3.7
v -3.8 3.2 3.5
v -3.8 4.7 3.7
v -3.8 4.7 3.5
v -3.7 0 3.5
v -3.7 0 -4.1
v -3.7 0.2 3.7
v -3.7 0.2 3.5
v -3.7 0.2 1.8
v -3.7 0.2 1.6
v -3.7 0.2 -1
v -3.7 0.2 -1.2
v -3.7 0.2 -4.1
v -3.7 0.2 -4.3
v -3.7 2.7 1.8
v -3.7 2.7 1.6
v -3.7 2.8 3.7
v -3.7 2.8 3.5
v -3.7 4.7 -1
v -3.7 4.7 -1.2
v -3.7 4.7 -4.1
v -3.7 4.7 -4.3
v -3.7 4.8 -1
v -3.7 4.8 -1.2
v -3.7 4.8 -4.1
v -3.7 4.8 -4.2
v -3.7 5.8 -1
v -3.7 5.8 -1.2
v -3.7 5.8 -4.1
v -3.7 5.8 -4.2
v 4 0 3.7
v 4 0 -4.3
v 4 0.2 3.5
v 4 0.2 1.8
v 4 0.2 1.6
v 4 0.2 -1
v 4 0.2 -1.2
v 4 0.2 -4.1
v 4 2.8 3.5
v 4 2.8 1.8
v 4 2.8 1.6
v 4 3.2 3.5
v 4 3.2 1.6
v 4 4.7 3.7
v 4 4.7 3.5
v 4 4.7 -1
v 4 4.7 -1.2
v 4 4.7 -4.1
v 4 4.7 -4.3
v 4 6 3.7
v 4 6 3.5
v 4 6 -1
v 4 6 -4.3
v -4 0 3.7
v -4 4.7 3.7
v -4 6 3.7
v -3.8 2.8 3.7
v -3.8 3.2 3.7
v -3.8 4.7 3.7
v -3.7 0.2 3.7
v -3.7 2.8 3.7
v 3.7 0.2 3.7
v 3.7 2.8 3.7
v 3.8 2.8 3.7
v 3.8 3.2 3.7
v 3.8 4.7 3.7
v 4 0 3.7
v 4 4.7 3.7
v 4 6 3.7
v -4 0.2 1.8
v -4 2.8 1.8
v -3.7 0.2 1.8
v -3.7 2.7 1.8
v 3.7 0.2 1.8
v 3.7 2.7 1.8
v 4 0.2 1.8
v 4 2.8 1.8
v -4 0.2 -1
v -4 4.7 -1
v -4 6 -1
v -3.7 0.2 -1
v -3.7 4.7 -1
v -3.7 4.8 -1
v -3.7 5.8 -1
v 3.7 0.2 -1
v 3.7 4.7 -1
v 3.7 4.8 -1
v 3.7 5.8 -1
v 4 0.2 -1
v 4 4.7 -1
v 4 6 -1
v -4 0.2 -4.1
v -4 4.7 -4.1
v -3.9 4.8 -4.1
v -3.9 5.8 -4.1
v -3.7 0 -4.1
v -3.7 0.2 -4.1
v -3.7 4.7 -4.1
v -3.7 4.8 -4.1
v -3.7 5.8 -4.1
v 3.7 0 -4.1
v 3.7 0.2 -4.1
v 3.7 4.7 -4.1
v 3.7 4.8 -4.1
v 3.7 5.8 -4.1
v 3.9 4.8 -4.1
v 3.9 5.8 -4.1
v 4 0.2 -4.1
v 4 4.7 -4.1
v -3.7 4.8 -4.2
v -3.7 5.8 -4.2
v 3.7 4.8 -4.2
v 3.7 5.8 -4.2
v -4 0.2 3.5
v -4 2.8 3.5
v -4 3.2 3.5
v -4 4.7 3.5
v -4 6 3.5
v -3.8 3.2 3.5
v -3.8 4.7 3.5
v -3.7 0 3.5
v -3.7 0.2 3.5
v -3.7 2.8 3.5
v 3.7 0 3.5
v 3.7 0.2 3.5
v 3.7 2.8 3.5
v 3.8 3.2 3.5
v 3.8 4.7 3.5
v 4 0.2 3.5
v 4 2.8 3.5
v 4 3.2 3.5
v 4 4.7 3.5
v 4 6 3.5
v -4 0.2 1.6
v -4 2.8 1.6
v -4 3.2 1.6
v -3.7 0.2 1.6
v -3.7 2.7 1.6
v 3.7 0.2 1.6
v 3.7 2.7 1.6
v 4 0.2 1.6
v 4 2.8 1.6
v 4 3.2 1.6
v -4 0.2 -1.2
v -4 4.7 -1.2
v -3.9 4.8 -1.2
v -3.9 5.8 -1.2
v -3.7 0.2 -1.2
v -3.7 4.7 -1.2
v -3.7 4.8 -1.2
v -3.7 5.8 -1.2
v 3.7 0.2 -1.2
v 3.7 4.7 -1.2
v 3.7 4.8 -1.2
v 3.7 5.8 -1.2
v 3.9 4.8 -1.2
v 3.9 5.8 -1.2
v 4 0.2 -1.2
v 4 4.7 -1.2
v -4 0 -4.3
v -4 4.7 -4.3
v -4 6 -4.3
v -3.7 0.2 -4.3
v -3.7 4.7 -4.3
v 3.7 0.2 -4.3
v 3.7 4.7 -4.3
v 4 0 -4.3
v 4 4.7 -4.3
v 4 6 -4.3
v -4 0 3.7
v 4 0 3.7
v -3.7 0 3.5
v 3.7 0 3.5
v -3.7 0 -4.1
v 3.7 0 -4.1
v -4 0 -4.3
v 4 0 -4.3
v -3.7 2.7 1.8
v 3.7 2.7 1.8
v -3.7 2.7 1.6
v 3.7 2.7 1.6
v -3.7 2.8 3.7
v 3.7 2.8 3.7
v -4 2.8 3.5
v -3.7 2.8 3.5
v 3.7 2.8 3.5
v 4 2.8 3.5
v -4 2.8 1.8
v 4 2.8 1.8
v -3.8 4.7 3.7
v 3.8 4.7 3.7
v -3.8 4.7 3.5
v 3.8 4.7 3.5
v -3.7 4.7 -1
v 3.7 4.7 -1
v -4 4.7 -1.2
v -3.7 4.7 -1.2
v 3.7 4.7 -1.2
v 4 4.7 -1.2
v -4 4.7 -4.1
v -3.7 4.7 -4.1
v 3.7 4.7 -4.1
v 4 4.7 -4.1
v -3.7 4.7 -4.3
v 3.7 4.7 -4.3
v -3.7 5.8 -1
v 3.7 5.8 -1
v -3.9 5.8 -1.2
v -3.7 5.8 -1.2
v 3.7 5.8 -1.2
v 3.9 5.8 -1.2
v -3.9 5.8 -4.1
v -3.7 5.8 -4.1
v 3.7 5.8 -4.1
v 3.9 5.8 -4.1
v -3.7 5.8 -4.2
v 3.7 5.8 -4.2
v -3.7 0.2 3.7
v 3.7 0.2 3.7
v -4 0.2 3.5
v -3.7 0.2 3.5
v 3.7 0.2 3.5
v 4 0.2 3.5
v -4 0.2 1.8
v -3.7 0.2 1.8
v 3.7 0.2 1.8
v 4 0.2 1.8
v -4 0.2 1.6
v -3.7 0.2 1.6
v 3.7 0.2 1.6
v 4 0.2 1.6
v -4 0.2 -1
v -3.7 0.2 -1
v 3.7 0.2 -1
v 4 0.2 -1
v -4 0.2 -1.2
v -3.7 0.2 -1.2
v 3.7 0.2 -1.2
v 4 0.2 -1.2
v -4 0.2 -4.1
v -3.7 0.2 -4.1
v 3.7 0.2 -4.1
v 4 0.2 -4.1
v -3.7 0.2 -4.3
v 3.7 0.2 -4.3
v -3.8 3.2 3.7
v 3.8 3.2 3.7
v -4 3.2 3.5
v -3.8 3.2 3.5
v 3.8 3.2 3.5
v 4 3.2 3.5
v -4 3.2 1.6
v 4 3.2 1.6
v -3.7 4.8 -1
v 3.7 4.8 -1
v -3.9 4.8 -1.2
v -3.7 4.8 -1.2
v 3.7 4.8 -1.2
v 3.9 4.8 -1.2
v -3.9 4.8 -4.1
v -3.7 4.8 -4.1
v 3.7 4.8 -4.1
v 3.9 4.8 -4.1
v -3.7 4.8 -4.2
v 3.7 4.8 -4.2
v -4 6 3.7
v 4 6 3.7
v -4 6 3.5
v 4 6 3.5
v -4 6 -1
v 4 6 -1
v -4 6 -4.3
v 4 6 -4.3

# faces
f 3/4/1 2/4/1 1/4/1
f 4/4/1 2/4/1 3/4/1
f 5/4/1 2/4/1 4/4/1
f 6/4/1 2/4/1 5/4/1
f 7/4/1 2/4/1 6/4/1
f 8/4/1 2/4/1 7/4/1
f 9/4/1 3/4/1 1/4/1
f 10/4/1 5/4/1 4/4/1
f 11/4/1 5/4/1 10/4/1
f 12/4/1 9/4/1 1/4/1
f 12/1/1 10/1/1 9/1/1
f 12/1/1 11/1/1 10/1/1
f 13/1/1 11/1/1 12/1/1
f 14/4/1 12/4/1 1/4/1
f 15/4/1 12/4/1 14/4/1
f 16/4/1 7/4/1 6/4/1
f 17/4/1 7/4/1 16/4/1
f 18/4/1 2/4/1 8/4/1
f 19/4/1 2/4/1 18/4/1
f 20/2/1 15/2/1 14/2/1
f 21/2/1 15/2/1 20/2/1
f 22/3/1 17/3/1 16/3/1
f 22/3/1 18/3/1 17/3/1
f 22/3/1 19/3/1 18/3/1
f 23/3/1 19/3/1 22/3/1
f 27/4/1 25/4/1 24/4/1
f 28/4/1 25/4/1 27/4/1
f 29/4/1 25/4/1 28/4/1
f 30/4/1 25/4/1 29/4/1
f 31/4/1 25/4/1 30/4/1
f 32/4/1 25/4/1 31/4/1
f 34/4/1 29/4/1 28/4/1
f 35/4/1 29/4/1 34/4/1
f 36/4/1 27/4/1 26/4/1
f 37/4/1 27/4/1 36/4/1
f 38/4/1 31/4/1 30/4/1
f 39/4/1 31/4/1 38/4/1
f 40/4/1 33/4/1 32/4/1
f 41/4/1 33/4/1 40/4/1
f 46/3/1 43/3/1 42/3/1
f 47/3/1 43/3/1 46/3/1
f 48/3/1 45/3/1 44/3/1
f 49/3/1 45/3/1 48/3/1
f 52/4/1 51/4/1 50/4/1
f 53/4/1 51/4/1 52/4/1
f 56/3/1 55/3/1 54/3/1
f 57/3/1 55/3/1 56/3/1
f 58/3/2 59/3/2 60/3/2
f 60/3/2 59/3/2 61/3/2
f 62/4/2 63/4/2 64/4/2
f 64/4/2 63/4/2 65/4/2
f 66/4/2 67/4/2 69/4/2
f 69/4/2 67/4/2 70/4/2
f 70/4/2 67/4/2 71/4/2
f 71/4/2 67/4/2 72/4/2
f 72/4/2 67/4/2 73/4/2
f 73/4/2 67/4/2 74/4/2
f 70/4/2 71/4/2 76/4/2
f 76/4/2 71/4/2 77/4/2
f 68/4/2 69/4/2 78/4/2
f 78/4/2 69/4/2 79/4/2
f 72/4/2 73/4/2 80/4/2
f 80/4/2 73/4/2 81/4/2
f 74/4/2 75/4/2 82/4/2
f 82/4/2 75/4/2 83/4/2
f 84/3/2 85/3/2 88/3/2
f 88/3/2 85/3/2 89/3/2
f 86/3/2 87/3/2 90/3/2
f 90/3/2 87/3/2 91/3/2
f 92/4/2 93/4/2 94/4/2
f 94/4/2 93/4/2 95/4/2
f 95/4/2 93/4/2 96/4/2
f 96/4/2 93/4/2 97/4/2
f 97/4/2 93/4/2 98/4/2
f 98/4/2 93/4/2 99/4/2
f 92/4/2 94/4/2 100/4/2
f 95/4/2 96/4/2 101/4/2
f 101/4/2 96/4/2 102/4/2
f 92/4/2 100/4/2 103/4/2
f 100/1/2 101/1/2 103/1/2
f 101/1/2 102/1/2 103/1/2
f 103/1/2 102/1/2 104/1/2
f 92/4/2 103/4/2 105/4/2
f 105/4/2 103/4/2 106/4/2
f 97/4/2 98/4/2 107/4/2
f 107/4/2 98/4/2 108/4/2
f 99/4/2 93/4/2 109/4/2
f 109/4/2 93/4/2 110/4/2
f 105/2/2 106/2/2 111/2/2
f 111/2/2 106/2/2 112/2/2
f 107/3/2 108/3/2 113/3/2
f 108/3/2 109/3/2 113/3/2
f 109/3/2 110/3/2 113/3/2
f 113/3/2 110/3/2 114/3/2
f 118/4/3 116/4/3 115/4/3
f 119/4/3 116/4/3 118/4/3
f 120/2/3 117/2/3 116/2/3
f 120/4/3 116/4/3 119/4/3
f 121/4/3 118/4/3 115/4/3
f 122/1/3 119/1/3 118/1/3
f 122/4/3 118/4/3 121/4/3
f 123/4/3 121/4/3 115/4/3
f 124/1/3 119/1/3 122/1/3
f 125/1/3 119/1/3 124/1/3
f 125/4/3 124/4/3 123/4/3
f 126/1/3 119/1/3 125/1/3
f 127/2/3 117/2/3 120/2/3
f 128/4/3 123/4/3 115/4/3
f 128/4/3 127/4/3 126/4/3
f 128/4/3 126/4/3 125/4/3
f 128/4/3 125/4/3 123/4/3
f 129/2/3 117/2/3 127/2/3
f 129/4/3 127/4/3 128/4/3
f 130/2/3 117/2/3 129/2/3
f 133/4/3 132/4/3 131/4/3
f 134/4/3 132/4/3 133/4/3
f 136/4/3 132/4/3 134/4/3
f 137/4/3 136/4/3 135/4/3
f 138/4/3 132/4/3 136/4/3
f 138/4/3 136/4/3 137/4/3
f 142/4/3 140/4/3 139/4/3
f 143/3/3 141/3/3 140/3/3
f 143/4/3 140/4/3 142/4/3
f 144/3/3 141/3/3 143/3/3
f 145/3/3 141/3/3 144/3/3
f 147/3/3 144/3/3 143/3/3
f 148/3/3 144/3/3 147/3/3
f 149/3/3 141/3/3 145/3/3
f 150/4/3 147/4/3 146/4/3
f 151/3/3 148/3/3 147/3/3
f 151/4/3 147/4/3 150/4/3
f 151/3/3 149/3/3 148/3/3
f 152/3/3 141/3/3 149/3/3
f 152/3/3 149/3/3 151/3/3
f 158/4/3 154/4/3 153/4/3
f 159/4/3 154/4/3 158/4/3
f 160/3/3 156/3/3 155/3/3
f 161/3/3 156/3/3 160/3/3
f 162/4/3 158/4/3 157/4/3
f 163/4/3 158/4/3 162/4/3
f 167/3/3 166/3/3 165/3/3
f 168/3/3 166/3/3 167/3/3
f 169/4/3 164/4/3 163/4/3
f 170/4/3 164/4/3 169/4/3
f 173/3/3 172/3/3 171/3/3
f 174/3/3 172/3/3 173/3/3
f 177/4/4 178/4/4 180/4/4
f 178/2/4 179/2/4 181/2/4
f 180/4/4 178/4/4 181/4/4
f 175/4/4 176/4/4 183/4/4
f 183/4/4 176/4/4 184/4/4
f 182/4/4 183/4/4 185/4/4
f 185/4/4 183/4/4 186/4/4
f 181/2/4 179/2/4 189/2/4
f 186/4/4 187/4/4 190/4/4
f 190/4/4 187/4/4 191/4/4
f 188/4/4 189/4/4 192/4/4
f 189/2/4 179/2/4 193/2/4
f 192/4/4 189/4/4 193/4/4
f 193/2/4 179/2/4 194/2/4
f 195/4/4 196/4/4 198/4/4
f 198/4/4 196/4/4 199/4/4
f 199/4/4 196/4/4 201/4/4
f 200/4/4 201/4/4 202/4/4
f 196/1/4 197/1/4 203/1/4
f 202/4/4 201/4/4 203/4/4
f 201/4/4 196/4/4 203/4/4
f 203/1/4 197/1/4 204/1/4
f 205/4/4 206/4/4 209/4/4
f 209/4/4 206/4/4 210/4/4
f 207/3/4 208/3/4 211/3/4
f 211/3/4 208/3/4 212/3/4
f 215/3/4 216/3/4 217/3/4
f 217/3/4 216/3/4 218/3/4
f 213/4/4 214/4/4 219/4/4
f 219/4/4 214/4/4 220/4/4
f 221/4/4 222/4/4 224/4/4
f 222/3/4 223/3/4 225/3/4
f 224/4/4 222/4/4 225/4/4
f 221/4/4 224/4/4 226/4/4
f 225/3/4 223/3/4 227/3/4
f 221/4/4 226/4/4 228/4/4
f 226/4/4 227/4/4 228/4/4
f 227/3/4 223/3/4 229/3/4
f 228/4/4 227/4/4 229/4/4
f 229/3/4 223/3/4 230/3/4
f 233/4/5 232/4/5 231/4/5
f 234/4/5 232/4/5 233/4/5
f 235/4/5 233/4/5 231/4/5
f 236/4/5 232/4/5 234/4/5
f 237/4/5 235/4/5 231/4/5
f 237/4/5 236/4/5 235/4/5
f 238/4/5 232/4/5 236/4/5
f 238/4/5 236/4/5 237/4/5
f 241/4/5 240/4/5 239/4/5
f 242/4/5 240/4/5 241/4/5
f 246/1/5 244/1/5 243/1/5
f 247/1/5 244/1/5 246/1/5
f 249/1/5 246/1/5 245/1/5
f 249/1/5 248/1/5 247/1/5
f 249/1/5 247/1/5 246/1/5
f 250/1/5 248/1/5 249/1/5
f 253/2/5 252/2/5 251/2/5
f 254/2/5 252/2/5 253/2/5
f 258/3/5 256/3/5 255/3/5
f 259/3/5 256/3/5 258/3/5
f 261/3/5 259/3/5 258/3/5
f 261/3/5 260/3/5 259/3/5
f 261/3/5 258/3/5 257/3/5
f 262/3/5 260/3/5 261/3/5
f 263/3/5 260/3/5 262/3/5
f 264/3/5 260/3/5 263/3/5
f 265/3/5 263/3/5 262/3/5
f 266/3/5 263/3/5 265/3/5
f 270/3/5 268/3/5 267/3/5
f 271/3/5 268/3/5 270/3/5
f 273/3/5 270/3/5 269/3/5
f 273/3/5 272/3/5 271/3/5
f 273/3/5 271/3/5 270/3/5
f 274/3/5 272/3/5 273/3/5
f 275/3/5 272/3/5 274/3/5
f 276/3/5 272/3/5 275/3/5
f 277/3/5 275/3/5 274/3/5
f 278/3/5 275/3/5 277/3/5
f 279/4/6 280/4/6 282/4/6
f 282/4/6 280/4/6 283/4/6
f 281/4/6 282/4/6 285/4/6
f 285/4/6 282/4/6 286/4/6
f 283/4/6 284/4/6 287/4/6
f 287/4/6 284/4/6 288/4/6
f 289/4/6 290/4/6 293/4/6
f 293/4/6 290/4/6 294/4/6
f 291/4/6 292/4/6 295/4/6
f 295/4/6 292/4/6 296/4/6
f 297/4/6 298/4/6 301/4/6
f 301/4/6 298/4/6 302/4/6
f 299/4/6 300/4/6 303/4/6
f 303/4/6 300/4/6 304/4/6
f 302/4/6 303/4/6 305/4/6
f 305/4/6 303/4/6 306/4/6
f 307/1/6 308/1/6 310/1/6
f 310/1/6 308/1/6 311/1/6
f 309/1/6 310/1/6 313/1/6
f 311/1/6 312/1/6 313/1/6
f 310/1/6 311/1/6 313/1/6
f 313/1/6 312/1/6 314/1/6
f 315/3/6 316/3/6 318/3/6
f 318/3/6 316/3/6 319/3/6
f 317/3/6 318/3/6 321/3/6
f 319/3/6 320/3/6 321/3/6
f 318/3/6 319/3/6 321/3/6
f 321/3/6 320/3/6 322/3/6
f 322/3/6 320/3/6 323/3/6
f 323/3/6 320/3/6 324/3/6
f 322/3/6 323/3/6 325/3/6
f 325/3/6 323/3/6 326/3/6
f 327/2/6 328/2/6 329/2/6
f 329/2/6 328/2/6 330/2/6
f 331/3/6 332/3/6 333/3/6
f 333/3/6 332/3/6 334/3/6
